<mxfile host="Electron" agent="Mozilla/5.0 (Macintosh; Intel Mac OS X 10_15_7) AppleWebKit/537.36 (KHTML, like Gecko) draw.io/26.1.1 Chrome/132.0.6834.210 Electron/34.3.3 Safari/537.36" version="26.1.1">
  <diagram name="Page-1" id="lZh2EkuH5Zh3OaEiIX6r">
    <mxGraphModel dx="794" dy="878" grid="1" gridSize="10" guides="1" tooltips="1" connect="1" arrows="1" fold="1" page="1" pageScale="1" pageWidth="827" pageHeight="1169" math="0" shadow="0">
      <root>
        <mxCell id="0" />
        <mxCell id="1" parent="0" />
        <mxCell id="oNcKjc2s-7sZJ-LFddc4-7" style="rounded=0;orthogonalLoop=1;jettySize=auto;html=1;entryX=0;entryY=0.5;entryDx=0;entryDy=0;endArrow=block;endFill=1;" edge="1" parent="1" source="oNcKjc2s-7sZJ-LFddc4-1" target="oNcKjc2s-7sZJ-LFddc4-2">
          <mxGeometry relative="1" as="geometry" />
        </mxCell>
        <mxCell id="oNcKjc2s-7sZJ-LFddc4-8" style="rounded=0;orthogonalLoop=1;jettySize=auto;html=1;entryX=0;entryY=0.25;entryDx=0;entryDy=0;endArrow=block;endFill=1;exitX=1.034;exitY=0.396;exitDx=0;exitDy=0;exitPerimeter=0;" edge="1" parent="1">
          <mxGeometry relative="1" as="geometry">
            <mxPoint x="93.97199999999998" y="193.00800000000004" as="sourcePoint" />
            <mxPoint x="169" y="249" as="targetPoint" />
          </mxGeometry>
        </mxCell>
        <mxCell id="oNcKjc2s-7sZJ-LFddc4-1" value="" style="sketch=0;pointerEvents=1;shadow=0;dashed=0;html=1;strokeColor=none;fillColor=#505050;labelPosition=center;verticalLabelPosition=bottom;verticalAlign=top;outlineConnect=0;align=center;shape=mxgraph.office.devices.mac_client;" vertex="1" parent="1">
          <mxGeometry x="36" y="175" width="58" height="48" as="geometry" />
        </mxCell>
        <mxCell id="oNcKjc2s-7sZJ-LFddc4-2" value="커맨드" style="rounded=0;whiteSpace=wrap;html=1;fillColor=#dae8fc;strokeColor=none;" vertex="1" parent="1">
          <mxGeometry x="170" y="110" width="70" height="40" as="geometry" />
        </mxCell>
        <mxCell id="oNcKjc2s-7sZJ-LFddc4-3" value="쿼리" style="rounded=0;whiteSpace=wrap;html=1;fillColor=#d5e8d4;strokeColor=none;" vertex="1" parent="1">
          <mxGeometry x="170" y="240" width="70" height="40" as="geometry" />
        </mxCell>
        <mxCell id="oNcKjc2s-7sZJ-LFddc4-4" value="" style="shape=cylinder3;whiteSpace=wrap;html=1;boundedLbl=1;backgroundOutline=1;size=15;" vertex="1" parent="1">
          <mxGeometry x="290" y="105" width="60" height="50" as="geometry" />
        </mxCell>
        <mxCell id="oNcKjc2s-7sZJ-LFddc4-5" value="" style="shape=cylinder3;whiteSpace=wrap;html=1;boundedLbl=1;backgroundOutline=1;size=15;" vertex="1" parent="1">
          <mxGeometry x="290" y="230" width="60" height="50" as="geometry" />
        </mxCell>
        <mxCell id="oNcKjc2s-7sZJ-LFddc4-6" value="프로젝션" style="rounded=0;whiteSpace=wrap;html=1;fillColor=#f5f5f5;fontColor=#333333;strokeColor=none;" vertex="1" parent="1">
          <mxGeometry x="285" y="180" width="70" height="30" as="geometry" />
        </mxCell>
        <mxCell id="oNcKjc2s-7sZJ-LFddc4-9" style="edgeStyle=orthogonalEdgeStyle;rounded=0;orthogonalLoop=1;jettySize=auto;html=1;entryX=0;entryY=0.5;entryDx=0;entryDy=0;entryPerimeter=0;endArrow=block;endFill=1;" edge="1" parent="1" source="oNcKjc2s-7sZJ-LFddc4-2" target="oNcKjc2s-7sZJ-LFddc4-4">
          <mxGeometry relative="1" as="geometry" />
        </mxCell>
        <mxCell id="oNcKjc2s-7sZJ-LFddc4-10" style="edgeStyle=orthogonalEdgeStyle;rounded=0;orthogonalLoop=1;jettySize=auto;html=1;entryX=0;entryY=0;entryDx=0;entryDy=30;entryPerimeter=0;endArrow=block;endFill=1;" edge="1" parent="1" source="oNcKjc2s-7sZJ-LFddc4-3" target="oNcKjc2s-7sZJ-LFddc4-5">
          <mxGeometry relative="1" as="geometry" />
        </mxCell>
        <mxCell id="oNcKjc2s-7sZJ-LFddc4-11" style="edgeStyle=orthogonalEdgeStyle;rounded=0;orthogonalLoop=1;jettySize=auto;html=1;entryX=1;entryY=0.5;entryDx=0;entryDy=0;entryPerimeter=0;endArrow=block;endFill=1;curved=1;exitX=1;exitY=0;exitDx=0;exitDy=30;exitPerimeter=0;" edge="1" parent="1" source="oNcKjc2s-7sZJ-LFddc4-4" target="oNcKjc2s-7sZJ-LFddc4-5">
          <mxGeometry relative="1" as="geometry">
            <Array as="points">
              <mxPoint x="390" y="135" />
              <mxPoint x="390" y="255" />
            </Array>
          </mxGeometry>
        </mxCell>
        <mxCell id="oNcKjc2s-7sZJ-LFddc4-16" style="rounded=0;orthogonalLoop=1;jettySize=auto;html=1;entryX=0;entryY=0.25;entryDx=0;entryDy=0;endArrow=none;endFill=1;exitX=1.034;exitY=0.396;exitDx=0;exitDy=0;exitPerimeter=0;startArrow=block;startFill=1;" edge="1" parent="1">
          <mxGeometry relative="1" as="geometry">
            <mxPoint x="91" y="203" as="sourcePoint" />
            <mxPoint x="171" y="263" as="targetPoint" />
          </mxGeometry>
        </mxCell>
      </root>
    </mxGraphModel>
  </diagram>
</mxfile>
